<?xml version="1.0" standalone="no"?>
<!DOCTYPE svg PUBLIC "-//W3C//DTD SVG 1.1//EN" "http://www.w3.org/Graphics/SVG/1.1/DTD/svg11.dtd" >
<svg xmlns="http://www.w3.org/2000/svg">
<metadata></metadata>
<defs>
<font id="beryliumbold_italic" horiz-adv-x="894" >
<font-face units-per-em="2048" ascent="1534" descent="-514" />
<missing-glyph horiz-adv-x="526" />
<glyph unicode="&#x28;C&#x29;" horiz-adv-x="1591" d="M291 393l90 451l237 301l244 174l332 20l242 -153l116 -320l-39 -315l-135 -275l-262 -243l-262 -82l-227 20l-158 103zM391 430l76 -197l178 -170l281 -18l268 162l186 205l70 276l-29 285l-98 209l-221 67l-199 -16l-178 -115l-115 -112l-141 -211zM553 461l53 340 l207 221l246 76l229 -74l-31 -133v-127l-73 -25l-37 205l-70 47l-151 -14l-148 -172l-57 -227l37 -179l96 -90l123 23l158 168l47 94l41 -78l-111 -227l-182 -74l-242 31z" />
<glyph unicode="&#x28;R&#x29;" horiz-adv-x="1314" d="M195 385l84 422l221 276l227 164l309 19l224 -142l108 -299l-37 -290l-123 -256l-245 -226l-240 -73l-213 14l-148 94zM293 422l67 -180l166 -156l260 -18l246 147l172 193l66 251l-23 267l-96 190l-207 64l-178 -13l-170 -112l2 2l-104 -103l-132 -196zM422 229l8 84 l57 9l54 49l98 495l-18 41l-76 -2l26 96l144 -6l198 13l172 -31l31 -176l-90 -139l-141 -33l18 -6l66 -74v-217l22 4l43 100l68 -8l-53 -168l-127 -33l-109 72l27 199l-47 86l-80 8l4 -21l-53 -219l94 -51l-35 -70l-133 31zM731 676l113 -4l92 61l35 88l-39 86l-121 19 l-43 -41z" />
<glyph unicode="&#xfb01;" horiz-adv-x="921" d="M-162 -360l178 165l131 177l48 161l108 566l-135 4l16 80l150 79l76 248l174 236l184 63l68 -6l127 -43l77 -74l43 -73l-159 -123l-78 145l-139 68l-78 -23l-80 -170l-68 -282l277 -15l196 76l43 -39l-182 -729l35 -70l49 -36l-20 -60l-164 25l-205 -8l33 81l73 11l56 84 l92 495l-37 66l-264 -6l-127 -643l-82 -213l-148 -144l-241 -153z" />
<glyph unicode="&#xfb02;" d="M-162 -360l178 165l131 177l48 161l108 566l-135 4l16 80l150 79l76 248l174 236l184 63l109 -20l84 6l83 25l56 -33l-221 -885l-76 -385l28 -64l64 -10l-16 -82l-177 25l-194 -14l16 84l70 4l61 92l217 1057l-45 69l-120 25l-78 -23l-80 -170l-68 -289l144 5l-17 -119 l-145 -4l-127 -643l-82 -213l-148 -144l-241 -153z" />
<glyph unicode="&#xfb03;" horiz-adv-x="1402" d="M-182 -379l198 184l131 177l48 161l108 566l-135 4l16 80l150 79l88 267l174 235l186 66l66 -6l123 -54l61 -67l31 43l186 63l66 -6l127 -43l78 -74l43 -73l-158 -123l-78 145l-139 68l-74 -23l-86 -170l-65 -282l274 -15l199 76l43 -39l-183 -729l35 -70l47 -36l-18 -60 l-166 25l-205 -8l33 81l74 11l57 84l90 495l-37 66l-262 -6l-129 -643l-82 -213l-145 -144l-244 -153l-27 80l179 165l131 177l47 161l108 566l-133 14l-186 -10l-127 -643l-82 -213l-148 -144l-262 -172zM483 838l242 -11l88 45l66 228l65 108l-72 92l-151 33l-78 -24 l-82 -170z" />
<glyph unicode="&#xfb04;" horiz-adv-x="1374" d="M-182 -379l198 184l131 177l48 161l108 566l-135 4l16 80l150 79l88 267l174 235l186 66l66 -6l123 -54l61 -67l31 43l186 63l109 -20l84 6l82 25l57 -33l-221 -885l-76 -385l27 -64l63 -10l-14 -82l-176 25l-197 -14l19 84l69 4l60 92l219 1057l-47 69l-119 25l-88 -43 l-72 -150l-65 -289l143 5l-19 -119l-143 -4l-129 -643l-82 -213l-145 -144l-244 -153l-27 80l179 165l131 177l47 161l108 566l-133 14l-186 -10l-127 -643l-82 -213l-148 -144l-262 -172zM483 838l242 -11l88 45l66 228l65 108l-72 92l-151 33l-78 -24l-82 -170z" />
<glyph horiz-adv-x="2048" />
<glyph horiz-adv-x="2048" />
<glyph unicode="&#xd;" horiz-adv-x="526" />
<glyph horiz-adv-x="526" />
<glyph unicode=" "  horiz-adv-x="526" />
<glyph unicode="&#x09;" horiz-adv-x="526" />
<glyph unicode="&#xa0;" horiz-adv-x="526" />
<glyph unicode="!" horiz-adv-x="344" d="M66 94l147 135l90 -145l-147 -152zM225 336l80 448l53 433l121 129l88 -129l-133 -429l-127 -452h-82z" />
<glyph unicode="&#x22;" horiz-adv-x="550" d="M268 754l54 301l-13 176l135 139l68 -129l-76 -201l-86 -286h-82zM512 758l55 293l-8 202l150 154l51 -184l-82 -185l-96 -293z" />
<glyph unicode="#" horiz-adv-x="1073" d="M176 471l45 125l119 -12l127 12l111 235l-97 -2l-145 -18l49 141l139 -16l103 4l194 408l43 -45h66l-225 -373h79l109 10l104 197l88 206l33 -47l94 23l-129 -203l-100 -182l98 8l144 25l-41 -164l-119 26l-129 -4l-127 -237l235 14l-36 -156l-97 41l-161 -18l-142 -287 l-71 -166l-41 37l-64 25l227 397l-178 -10l-108 -219l-94 -226l-95 82l224 383zM541 588l178 -4l104 217l29 28l-176 9z" />
<glyph unicode="$" d="M123 66l37 372l65 -6l11 -129l65 -192l113 -41h28l103 485l-158 137l-57 256l106 215l162 119l109 21l24 129l96 -7l-41 -122l119 -3l129 -79l-90 -291l-72 -17l21 168l-62 125l-63 15l-92 -467l158 -136l55 -245l-53 -168l-152 -156l-182 -76l-27 -155l-100 -11l47 175 h-115zM504 954l43 -116l53 -52l92 426l-55 -18l-94 -80zM522 76l60 12l80 86l36 100l-10 175l-70 65z" />
<glyph unicode="%" horiz-adv-x="1417" d="M262 709v215l105 254l153 120l121 23l156 -55l69 -242l-59 -254l-119 -166l-84 -59l-63 -13l-140 11zM268 -4l525 647l505 717l93 -107l-514 -641l-504 -731zM455 637l43 -25l96 72l68 236l36 251l-59 66l-43 -8l-76 -101l-53 -256v2zM838 231l57 281l121 205l168 39 l141 -25l105 -192l-35 -260l-107 -226l-166 -88l-196 39zM993 274l2 -176l49 -53l103 41l102 217l27 248l-12 106l-105 -12l-102 -129z" />
<glyph unicode="&#x26;" horiz-adv-x="1329" d="M129 276l68 236l174 172l110 76l-78 139l5 172l81 146l181 112h204l105 -115v-182l-109 -147l-149 -97l194 -344l144 205l33 94l-43 52l-5 75l166 -39l258 17l-32 -74l-121 -29l-193 -157l-168 -217l99 -209l123 -72l149 4l-27 -106l-221 -31l-180 25l-80 235l-112 -127 l-193 -119l-162 -10l-153 74zM307 352l68 -159l121 -74l176 51l108 102l-241 447l-74 -47l-107 -125zM573 1124l11 -139l88 -135l69 31l93 153l-7 150l-102 59l-92 -33z" />
<glyph unicode="'" horiz-adv-x="301" d="M272 750l50 307v219l120 86l74 -92l-88 -226l-72 -274z" />
<glyph unicode="(" horiz-adv-x="651" d="M215 365l88 309l209 377l262 305l41 -84l-213 -275l-178 -379l-80 -364v4l-10 -334l133 -352l-57 -86l-129 250l-58 348z" />
<glyph unicode=")" horiz-adv-x="651" d="M14 -426l174 205l-2 -2l150 276l110 373l56 330l-29 248l-65 155l-37 127l67 53l148 -391l32 -395l-79 -375l-193 -338l-309 -352z" />
<glyph unicode="*" horiz-adv-x="901" d="M260 944l125 90l172 -20l-100 168l80 149l108 -35l27 -211l104 203l164 68l-12 -166l-162 -174l205 35l57 -111l-119 -98l-176 47l92 -158l-59 -147l-133 41l-10 200l-76 -176l-146 -100l-30 158l159 178l-163 -35z" />
<glyph unicode="+" horiz-adv-x="757" d="M164 453l47 196l258 -26l74 344l133 10l-96 -344l254 -15l-50 -141l-235 -10l-41 -334l-158 19l78 307z" />
<glyph unicode="," horiz-adv-x="466" d="M4 -401l21 98l129 51l90 123l-13 104l-12 33l-59 -26l-80 106l160 160l116 -117l19 -211l-70 -147l-115 -103z" />
<glyph unicode="-" horiz-adv-x="561" d="M166 387l41 174l196 -45l205 33l-53 -201l-149 39h-240z" />
<glyph unicode="." horiz-adv-x="407" d="M84 70l154 172l92 -154l-148 -151z" />
<glyph unicode="/" horiz-adv-x="561" d="M-98 -344l422 768l407 911l125 -51l-481 -911l-344 -748z" />
<glyph unicode="0" d="M158 338l47 348l104 318l176 225l162 84l160 8l156 -131l36 -289l-47 -334l-139 -356l-195 -217l-204 -47l-172 104zM338 184l68 -141l81 -4l119 102l119 289l72 371v-2l20 303l-57 115l-86 8l-51 -15l-84 -92l-121 -364l-80 -310v-260z" />
<glyph unicode="1" horiz-adv-x="671" d="M57 63l144 11l84 119l192 933l-61 91h-117l27 106l184 -41l197 25l-258 -1108l57 -119l129 -27l-23 -84l-274 23l-264 -21z" />
<glyph unicode="2" horiz-adv-x="872" d="M-33 -49l590 563l178 279l27 225l-84 121l-174 -37l-160 -131l-68 37l158 186l191 119h206l140 -148l-23 -266l-139 -250l-285 -307l-221 -174h322l131 84l92 139l57 -43l-106 -170l-97 -201l-311 15z" />
<glyph unicode="3" horiz-adv-x="802" d="M90 227l135 135l99 -131l-62 -71l96 -109l156 33l111 154l18 172l-98 151l-103 39l-118 -12l-13 30l226 138l-2 -2l135 100l82 168l-76 149l-158 -24l-178 -152l-41 56l166 196l201 90l192 -30l90 -168l-51 -195l-154 -153l-118 -66l88 -16l88 -103l49 -143l-62 -232 l-122 -141l-174 -108l-226 -15l-131 158z" />
<glyph unicode="4" d="M39 375l825 966l49 -53l-153 -747l194 12l-14 -182h-205l-22 -17l-37 -176l53 -117l70 -4l-2 -80l-248 7l-236 -19l23 88l88 41l86 84l39 197h-510zM303 543l281 8l92 434z" />
<glyph unicode="5" horiz-adv-x="819" d="M90 145l4 78l156 129l88 -155l-53 -50l57 -90l92 -6l154 113l71 186v232l-118 104l-156 -29l-119 -79l-49 34l131 355l88 331h418l68 50l45 82l49 -48l-125 -295l-410 25l-100 -303l166 55l229 -98l98 -219l-61 -256l-186 -244l-246 -96l-211 47z" />
<glyph unicode="6" horiz-adv-x="899" d="M133 365l66 272l223 338l293 239l311 152l-4 -76l-231 -160l-287 -296l-27 -46l121 60l223 -41l109 -176l-15 -291l-110 -242l-252 -127h-215l-162 119zM299 231l63 -161l130 -27l96 33l88 92l69 192v189l-81 156l-156 20l-113 -57l-78 -228z" />
<glyph unicode="7" horiz-adv-x="835" d="M45 -37l854 1155h-410l-135 -84l-55 -108l-74 18l152 365l383 -21l409 39l-540 -737l-398 -617z" />
<glyph unicode="8" horiz-adv-x="821" d="M84 231l74 222l147 139l115 67l-119 121l-35 199l99 217l198 113l205 24l170 -88l27 -190l-68 -178l-106 -103l-111 -67l96 -119l70 -213l-51 -197l-156 -164l-195 -59l-178 10l-137 96zM254 201l12 -105l92 -53l123 -4l133 98l50 176l-35 142l-62 94l-88 63l-69 -49 l-105 -180zM442 1008l35 -150l90 -82l47 -37l39 31l86 166l54 166l-35 104l-72 49l-135 -34l-78 -74z" />
<glyph unicode="9" horiz-adv-x="886" d="M109 -10l266 170l239 209l88 153l-36 -20l-224 -37l-147 72l-74 153l17 244l151 235l186 138l242 34l166 -133l55 -258l-88 -346l-213 -307l-325 -248l-273 -119zM410 788l34 -133l101 -80l135 17l100 72l-4 10l68 262v-2l14 172l-39 96l-90 49l-117 -22l-114 -101 l-64 -155z" />
<glyph unicode=":" horiz-adv-x="405" d="M86 96l150 142l112 -132l-164 -184zM219 719l174 162l88 -168l-164 -152z" />
<glyph unicode=";" horiz-adv-x="444" d="M31 -369l94 70l88 98l49 148l-47 55l-61 -37l-76 144l153 120l93 -34l67 -158l-35 -189l-125 -153l-155 -123zM231 698l181 181l108 -181l-178 -153z" />
<glyph unicode="&#x3c;" horiz-adv-x="866" d="M227 487l37 154l402 225l309 228l-45 -203l-586 -344l436 -357l-51 -170l-436 429z" />
<glyph unicode="=" horiz-adv-x="1073" d="M211 301l45 156l401 -31l340 31l-14 -162l-342 18zM287 625l43 186l377 -29l374 13l-30 -168l-361 32z" />
<glyph unicode="&#x3e;" horiz-adv-x="866" d="M125 25l55 178l565 348l-432 340l39 184l277 -274l233 -197l-12 -123l-295 -172z" />
<glyph unicode="?" horiz-adv-x="780" d="M221 1008l154 186l192 119h230l139 -148l-23 -266l-73 -129l-357 -276l-41 -56l2 -80l68 -53l-119 -106l-90 125l53 143l297 262l47 66l25 221l-107 123l-174 -37l-155 -131zM279 74l133 133l94 -119l-135 -147z" />
<glyph unicode="@" horiz-adv-x="1591" d="M223 82l27 522l323 531l525 192l379 -143l145 -330l-100 -432l-381 -336l-107 2l-59 90l-103 -78l-153 -41l-156 101l43 262l148 115l286 94l-6 2l23 123l-21 73l-75 33l-97 -80l29 -67l-129 -99l-86 109l278 233l189 13l76 -197l-125 -500l20 -43l43 5l273 219l116 379 l-118 282l-330 123l-447 -199l-268 -446l-63 -467l165 -240l279 -88l276 43l256 174l56 -53l-303 -190l-277 -72l-366 111zM721 266l61 -71l82 -7l92 68l52 281l-248 -105z" />
<glyph unicode="A" horiz-adv-x="1150" d="M8 -25l17 86l88 13l82 98l643 1208l98 37l47 -778l66 -481l61 -90l84 -13l-43 -75l-217 6l-195 -11l-10 97l68 -9l63 87l-37 362l8 10h-354l4 -14l-170 -332v-110l115 -13v-78l-207 21zM528 627l299 -11l-61 461z" />
<glyph unicode="B" horiz-adv-x="1067" d="M63 -35l50 98l84 21l82 111l188 927l-29 86l-84 21l11 80l190 -11l154 15l309 -51l112 -193l-51 -209l-149 -147l-96 -25l120 -55l95 -146l2 -159l-105 -197l-248 -151zM444 154l56 -103h102l141 55l86 109l41 172l-57 150l-147 81h-127zM571 700l103 5l137 55l104 102 l31 174l-65 138l-129 65l-64 -6z" />
<glyph unicode="C" horiz-adv-x="1150" d="M174 276v338l127 322l215 254l291 123l340 14l186 -115l-20 -151l-25 -197l-80 15v163l-26 138l-168 63l-264 -63l-222 -224l-120 -317l-27 -287l125 -219l203 -94l172 31l196 182l86 178l68 -24l-174 -377l-197 -64l-250 -18l-276 114z" />
<glyph unicode="D" horiz-adv-x="1325" d="M70 -37l6 80l117 39l90 125l184 885l-29 122h-92l14 86l197 -8l170 29h186l258 -92l207 -225l27 -306l-115 -344l-256 -239l-268 -123l-248 -21l-192 15zM469 160l106 -107l220 33l184 137l127 215l70 303l-33 263l-168 153l-203 70l-115 -10l5 -52l-193 -880v-125z" />
<glyph unicode="E" horiz-adv-x="1062" d="M45 -37l33 82l119 43l79 131l183 895l-35 107h-92l24 82h858l-67 -158l-27 -170l-69 -6l4 182l-107 66l-286 -15l-103 -491l234 10l106 70l53 122l68 -30l-76 -226l-26 -215l-80 -8v113l-84 57h-232l17 -18l-88 -385l65 -117l123 -25l170 29l152 143l67 201l72 -37 l-70 -205l-106 -208h-582z" />
<glyph unicode="F" horiz-adv-x="946" d="M70 -29l10 64l98 28l82 95l209 968l-45 88l-88 3l10 86h371l489 12l-69 -162l-39 -182l-82 -27l31 178l-89 105l-305 -8l21 -27l-111 -498l209 -6l113 55l80 154l45 -49l-80 -227l-31 -238h-78l10 125l-59 65l-258 15l14 -23l-71 -329l37 -146l106 -24l-18 -97l-242 23z " />
<glyph unicode="G" horiz-adv-x="1236" d="M164 350l55 418l203 309l313 215l350 35l322 -76l-72 -170l-32 -204l-64 12l-20 219l-136 127h-223l-217 -111l-137 -206l-94 -297l-17 -228l99 -198l178 -121l196 -25l78 53l45 213l-18 103l-109 33l41 96l189 -31l225 33l-16 -74l-117 -74l-39 -213l47 -102l-186 -92 l-177 -27h-299l-233 123z" />
<glyph unicode="H" horiz-adv-x="1415" d="M49 -29l25 82l121 33l69 104l185 881l-27 125l-84 18l12 95l219 -15l271 27l12 -96l-98 -4l-103 -136l-90 -356h613l-13 31l68 364l-29 93l-129 22l59 72l222 -33l268 35l-16 -86l-80 -2l-99 -133l-204 -885l32 -115l90 -49l-4 -66l-235 21l-279 -29l29 88l98 13l97 133 l81 411h-589l-56 -297l-24 -213l127 -55l12 -78h-551z" />
<glyph unicode="I" horiz-adv-x="636" d="M57 -27l21 84l145 49l37 78l203 963l-82 70l-72 12l41 96l240 -59l264 47l8 -80l-125 -35l-86 -121l-207 -909l33 -92l109 -35l-17 -80l-264 47z" />
<glyph unicode="J" horiz-adv-x="636" d="M-125 -354l4 96l170 39l154 194l73 185l183 932l-35 112l-84 27l10 90l244 -33l258 23v-97h-82l-111 -106l-202 -969l-127 -274l-295 -195z" />
<glyph unicode="K" horiz-adv-x="1239" d="M61 -25l29 74l103 19l81 108l187 885l-19 137l-88 33l15 74l204 -19l240 39l-2 -92l-96 -27l-62 -73l-75 -416l180 135l286 313l-10 62l-53 10l6 68l197 -11l176 17l45 -78l-98 -14l-183 -101l-407 -405l20 -11l238 -456l155 -174l105 -35l-21 -70l-202 10l-142 91 l-147 204l-180 299l-60 -258v-198l119 -62l-18 -84l-244 27z" />
<glyph unicode="L" horiz-adv-x="1062" d="M59 -27l17 86l84 4l96 93l205 981l-51 77h-97l25 107l237 -35l330 25l-43 -92l-119 -9l-84 -84l-219 -981l31 -57h336l129 92l108 191l86 -21l-186 -383l-389 23z" />
<glyph unicode="M" horiz-adv-x="1499" d="M-27 -33v96l95 11l94 108l282 885l-26 137l-84 33l28 88l181 -27l182 19l-2 -86l-59 -31l131 -901l77 170l428 715l-14 102l39 39l152 -33l196 21l-20 -90l-64 -2l-108 -117l-131 -926l34 -104l97 -17l-8 -75l-281 10l-227 -23l-2 84l92 15l116 129l117 794l-592 -1054 l-24 6l-170 925l-2 45l-211 -741l30 -84l101 -35l-19 -80l-202 29z" />
<glyph unicode="N" horiz-adv-x="1325" d="M-18 -49l16 76l143 49l115 160l176 831l-59 139l-125 17l2 73l156 7l149 20l532 -952l17 -41l145 753l-30 129l-136 27l25 84l233 -25l215 19v-80l-114 -23l-84 -124l-221 -1002l-15 -172l-37 -4l-575 1012l-8 39l-154 -756l55 -115l91 -35l-17 -80l-229 9z" />
<glyph unicode="O" horiz-adv-x="1327" d="M186 262v387l43 131l183 340l331 189l342 12l263 -164l82 -334l-76 -370l-197 -297l-293 -176l-270 -23l-250 96zM401 354l111 -243l215 -52l252 125l151 256l82 336l-36 281l-82 143l-156 43l-172 -45l-199 -166l-153 -373z" />
<glyph unicode="P" horiz-adv-x="978" d="M55 -31l15 92l100 23l94 113l189 931l-58 91h-71l14 81l156 -12l256 21l231 -37l152 -160l-33 -256l-174 -217l-254 -98h-164l-72 -338l41 -115l111 -35l-23 -71l-248 20zM522 618l113 -4l203 107l90 207l-25 190l-143 88l-121 13l14 -11z" />
<glyph unicode="Q" horiz-adv-x="1327" d="M186 262v387l43 131l183 340l331 189l342 12l263 -164l82 -334l-76 -370l-197 -297l-295 -176l166 -78l107 8l112 106l58 -61l-228 -186l-112 -15l-203 90l-182 -100l-35 90l215 137l-166 -14l-250 96zM401 354l111 -243l215 -52l252 125l151 256l82 336l-36 281l-82 143 l-156 43l-172 -45l-199 -166l-153 -373z" />
<glyph unicode="R" horiz-adv-x="1173" d="M63 -23l29 80l121 31l70 94l206 953l-45 71l-108 23l45 80l180 -11l205 17l197 -12l188 -177l-49 -270l-135 -151l-117 -48l55 -24l39 -189l21 -225l30 -117l168 -53v-84l-221 6l-151 117l-46 406l-57 84l-135 6l-80 -355l6 -108l131 -68l-10 -76l-258 25zM571 668 l150 20l174 143l49 242l-98 148l-127 22l-25 -4z" />
<glyph unicode="S" d="M123 59l16 326l66 43l26 -221l113 -141l168 -7l158 131l20 191l-84 100l-184 178l-70 99l10 221l115 225l207 131h211l160 -92l-84 -305h-62l-4 231l-104 74l-154 -24l-106 -193l28 -156l230 -211l119 -196l-48 -244l-170 -182l-208 -86l-207 20z" />
<glyph unicode="T" horiz-adv-x="1067" d="M201 993l127 381l75 -76h826l106 107l-65 -432l-76 -29v146l-104 104l-213 6l-209 -962l16 -132l156 -59l-15 -72l-284 23l-318 -21l17 62l176 61l80 133l198 967h-123l-182 -37l-127 -215z" />
<glyph unicode="U" horiz-adv-x="1325" d="M266 262l172 834l-32 110l-87 19l3 73l256 -10l253 23l-26 -88l-92 -13l-92 -125l-166 -782l90 -178l215 -31l205 60l133 184l153 741l-30 121l-97 43l31 60l205 -9l192 11l-18 -76l-74 -23l-78 -114l-118 -553l-117 -316l-211 -221l-279 -53l-270 65z" />
<glyph unicode="V" horiz-adv-x="1239" d="M303 1229l25 76l200 -17l252 12l-8 -71l-90 -12l-59 -107l102 -848l459 848l-8 107l-97 22l15 72l188 -17l217 15l-18 -80l-82 -19l-135 -145l-611 -1096l-35 -94h-30l-144 1165l-57 150z" />
<glyph unicode="W" horiz-adv-x="1591" d="M276 1229l23 80l195 -23l231 25l-8 -82l-88 -15l-70 -94l25 -778l395 758l98 200l70 11l43 -951l375 766l-15 88l-86 25l21 66l174 -17l199 21v-80l-78 -19l-103 -98l-612 -1196h-25l-55 1028l-539 -1032l-30 6l-51 1262z" />
<glyph unicode="X" horiz-adv-x="1064" d="M18 -27l13 72l84 33l-2 -2l166 104l317 430l-131 529l-57 71l-95 19l9 78l227 -17l217 17l-12 -72l-66 -18l-29 -60l84 -354l226 323v97l-62 28l29 54l160 -19l204 25v-80l-104 -17l-127 -106l-293 -395l105 -434l67 -179l103 -45l-11 -84l-211 25l-208 -27v68l69 33 l35 59l-102 393l-238 -344l-14 -90l69 -41l-16 -65l-184 20z" />
<glyph unicode="Y" horiz-adv-x="1062" d="M285 -27l37 95l69 16l84 98l76 361l-139 639l-93 47l25 71l172 -22l215 33l-6 -78l-66 -19l-34 -51l90 -479l297 455l-15 90l-73 6l16 70l176 -17l197 21l-13 -78l-55 -6l-137 -107l-371 -534l-80 -361l23 -127l102 -43l-16 -71l-250 16z" />
<glyph unicode="Z" horiz-adv-x="1155" d="M23 -35l1017 1219h-389l-168 -111l-106 -194l-43 41l112 372l431 -10l487 14l-965 -1200l430 10l189 107l131 205h80l-172 -426h-791z" />
<glyph unicode="[" horiz-adv-x="651" d="M57 -473l236 922l141 886l375 -28l-18 -97h-226l8 -8l-329 -1573h219l-33 -102h-373z" />
<glyph unicode="\" horiz-adv-x="552" d="M285 1292l108 51l88 -1732l-104 -33z" />
<glyph unicode="]" horiz-adv-x="651" d="M-27 -481l39 100h230l344 1585h-252l33 103h399l-39 -93l-346 -1622l-6 -65z" />
<glyph unicode="^" horiz-adv-x="1196" d="M223 791l606 544h123l369 -520l-109 -37l-381 377l-505 -391z" />
<glyph unicode="_" horiz-adv-x="815" d="M-90 -477l33 186l376 -35l394 23l-25 -203z" />
<glyph unicode="`" horiz-adv-x="317" d="M285 1292l170 103l102 -387l-86 -29z" />
<glyph unicode="a" horiz-adv-x="821" d="M129 160l39 348l197 264l186 129l127 -6l143 -57l127 -11l-28 -67l-78 -37l-125 -588l18 -49l60 27l6 -95l-105 -20l-192 -57l47 131l10 45l-41 -45l-166 -113l-90 37zM315 428l19 -233l67 -76l107 37l78 77h-2l96 441l8 82l-129 47l-129 -90z" />
<glyph unicode="b" horiz-adv-x="892" d="M72 53l86 70l223 1075l-19 55h-43l3 82l112 17l148 84l24 -56l-78 -239l-84 -361l185 92l264 -34l68 -306l-91 -301l-190 -186l-250 -82zM334 274l22 -161l119 -60l162 68l121 203l24 266l-92 139l-170 16l-110 -53l12 -4z" />
<glyph unicode="c" horiz-adv-x="698" d="M100 211l47 307l222 277l264 88l147 -25l68 -113l-129 -108l-113 131h-119l-120 -119l-66 -211l33 -219l115 -102l129 8l116 76l41 -37l-106 -115l-205 -78l-195 39z" />
<glyph unicode="d" horiz-adv-x="864" d="M115 160l39 348l192 266l252 109l96 4l101 -31l-15 16l90 342l-92 78l10 70l132 6l151 72l4 -70l-28 -55l-248 -1180l20 -49l58 27l8 -95l-107 -20h2l-194 -57l47 131l12 45l-43 -47l-194 -111l-160 35zM301 428l12 -231l131 -78l146 39l78 75h-4l71 342l-30 179l-127 32 l-175 -98z" />
<glyph unicode="e" horiz-adv-x="727" d="M96 315l113 314l178 194l125 58l172 -15l113 -112v-267l-492 -53l-18 -45l32 -162l130 -108l147 33l117 129l41 -80l-215 -191l-166 -45l-197 80zM326 522l309 51l10 160l-92 68l-102 -33l-72 -68z" />
<glyph unicode="f" horiz-adv-x="481" d="M-162 -360l178 165l131 177l48 161l108 566l-135 4l16 80l150 79l76 248l174 236l184 63l68 -6l118 -43l-127 -127l-120 70l-78 -23l-80 -170l-68 -289l144 5l-17 -119l-145 -4l-127 -643l-82 -213l-148 -144l-241 -153z" />
<glyph unicode="g" horiz-adv-x="866" d="M72 -440l41 245l57 -24l18 -150l56 -47l104 17l150 108l98 156l47 190l-192 -84l-201 21l-135 211l35 299l215 266l210 98h191l102 -71l66 104l61 -31l-57 -116l-182 -867l-92 -209l-158 -127l-189 -63l-167 12zM295 303l70 -174l139 -43l149 57l-2 23l86 418l-8 125 l-119 73l-143 -43l-125 -186z" />
<glyph unicode="h" horiz-adv-x="890" d="M29 -16l22 65l74 31l47 84l207 1034l-62 72l7 65l118 21l133 82l25 -58l-151 -604l243 119l187 -82l24 -192l-98 -486l20 -82l39 -2l-12 -69l-147 10l-191 -10v71l70 8l61 70l88 463l-55 147h-115l-133 -57h2l-129 -555l31 -57l59 -31l-24 -59l-160 20z" />
<glyph unicode="i" horiz-adv-x="442" d="M29 -18l32 81l74 11l58 84l90 495l-33 60l-43 -15l-8 80l143 49l133 72l41 -39l-180 -729l35 -70l47 -36l-19 -60l-166 25zM367 1243l155 152l80 -172l-158 -123z" />
<glyph unicode="j" horiz-adv-x="423" d="M-145 -360l155 75l115 185l139 749l-31 43l-38 4l8 78l133 37l121 82l51 -47l-197 -832l-108 -258l-170 -131l-162 -67zM362 1253l158 133l76 -153l-135 -123z" />
<glyph unicode="k" horiz-adv-x="788" d="M41 -25l4 74l76 29l39 82l121 514l102 514l-27 74l-26 4l6 73l117 21l106 70l39 -35l-182 -731l-29 -164l199 219l4 41l-29 2l2 84l164 -10l217 36l-14 -81l-84 -13l-176 -92l-162 -174l22 -31l183 -354l63 -78l47 -2l-16 -59l-137 -29l-125 102l-152 359l-20 -17 l-60 -297l23 -43l65 -10l-16 -71l-174 16z" />
<glyph unicode="l" horiz-adv-x="413" d="M27 -18l18 84l70 4l59 92l219 1057l-43 53l2 71l111 23l100 64l58 -33l-222 -885l-75 -385l26 -64l64 -10l-15 -82l-176 25z" />
<glyph unicode="m" horiz-adv-x="1341" d="M33 47l67 16l60 64l104 532l-59 64l-8 51l141 53l80 68l59 12l-26 -141l34 31l181 75l172 -30l47 -107l108 88l178 60l152 -58l37 -186l-103 -479l7 -84l43 -27l12 -74l-162 21l-215 -19l12 76l93 15l61 104l76 412l-35 135h-170l-88 -60l-103 -507l3 -68l61 -23l-16 -77 l-154 12l-205 -23l35 80l53 10l62 68l98 492l-59 100l-166 -6l-74 -58l-117 -514l21 -67l67 -17l-10 -94l-176 29l-170 -19z" />
<glyph unicode="n" horiz-adv-x="878" d="M51 47l64 25l57 84l107 497l-31 58l-27 -13l-14 70l139 47l117 84l37 -39l-33 -100l86 61l221 68l141 -101v-192l-112 -481l33 -62l28 -12l-14 -66l-152 17l-174 -23l8 84l66 15l55 69l97 463l-43 135l-113 10l-156 -73l-116 -547l26 -62l72 -12l-21 -67h-344z" />
<glyph unicode="o" d="M106 184l21 265l162 301l239 116h209l82 -26l123 -117l21 -240l-97 -266l-172 -186l-235 -60l-223 43zM279 315l43 -196l110 -70l139 21l121 161l101 273l-19 203l-92 77l-145 -6l-158 -151z" />
<glyph unicode="p" horiz-adv-x="892" d="M-66 -485l31 86l78 28l43 92l180 957l-41 53l-6 70l119 33l106 63l37 -31l-28 -80l178 93l207 -27l114 -168l-16 -281l-131 -243l-199 -146l-200 -43l-113 11l-57 -287l16 -74l104 -27l-18 -77l-184 26zM346 156l94 -82l154 22l106 119l78 238l-41 243l-149 60l-168 -78 l16 -12l-84 -336z" />
<glyph unicode="q" horiz-adv-x="892" d="M115 203l35 299l215 266l210 98h191l102 -71l66 104l61 -31l-57 -116l-231 -1051l6 -84l63 -23l-16 -71l-174 22l-203 -26l18 73l97 37l55 95l63 325l-165 -78l-201 21zM295 303l70 -174l139 -43l149 57l-4 21l88 420l-8 125l-119 73l-143 -30l-125 -199z" />
<glyph unicode="r" horiz-adv-x="587" d="M51 -25l8 74l72 23l55 88l88 497l-28 48h-39l14 69l98 27l132 88l34 -43l-47 -158l111 131l129 66l82 -137l-150 -134l-49 82l-96 -67l-62 -146l3 4l-78 -342l26 -67l95 -29l-11 -67l-207 20z" />
<glyph unicode="s" horiz-adv-x="614" d="M68 53l38 246l58 -27l18 -147l82 -72l113 31l65 145l-47 99l-57 53l-78 49l-59 70l6 168l106 147l160 64l76 -7l135 -61l-41 -217l-59 12l-13 127l-67 64l-82 -21l-55 -94l12 -98l61 -66l101 -88l53 -63l4 -148l-109 -172l-172 -74l-172 17z" />
<glyph unicode="t" horiz-adv-x="452" d="M160 160l125 545h-88l-25 55l150 127l145 139l61 -10l-47 -176h117l-14 -131l-144 -13l-69 -334l-33 -223l27 -45l90 37l8 -74l-144 -98l-141 41z" />
<glyph unicode="u" horiz-adv-x="886" d="M168 78l49 344l57 278l-30 62l-41 18l-2 82l135 -16l145 31l-135 -637l53 -134h119l133 82l-4 35l92 486l-22 53l-68 14l2 82l140 -14l178 30l-105 -421l-71 -328l20 -29l74 19l-27 -92l-123 -5l-149 -65l24 137l-123 -76l-174 -39z" />
<glyph unicode="v" horiz-adv-x="786" d="M182 791l15 75l141 -16l168 12l14 -74l-80 -16l-30 -57l67 -496l283 506l-19 59l-53 11l17 92l143 -41l121 22l2 -67l-80 -37l-500 -846l-24 -6l-101 795l-37 67z" />
<glyph unicode="w" horiz-adv-x="1218" d="M178 791l19 61l182 -8l172 30l-23 -83l-65 -9l-31 -51l45 -469l324 596l61 -18l29 -604l272 485l-6 59l-57 15l45 71l121 -26l129 30v-75l-62 -11l-76 -69l-466 -797l-25 -6l-45 600l-340 -596l-25 -4l-108 860z" />
<glyph unicode="x" horiz-adv-x="755" d="M8 -18l17 69l90 25l96 78l178 229l-117 379l-75 35l20 63l166 -8l166 16l-17 -71l-36 -6l-33 -46l61 -184l129 184l2 39l-39 11l27 71l115 -14l141 14l-4 -71l-55 -4l-97 -68l-202 -252l149 -397l49 -33l-8 -59l-182 8l-168 -8l10 49l58 41l8 53l-39 188l-150 -190 l-2 -62l45 -14l-24 -55h-127z" />
<glyph unicode="y" horiz-adv-x="786" d="M12 -346l119 115l53 -70l35 20l133 238l-90 745l-24 70l-50 25l17 67l145 -14l176 24l-8 -79l-59 -9l-29 -57l51 -528l256 501l-8 78l-61 8l41 84l125 -22l149 22l-10 -77l-84 -31l-60 -80l-563 -1032l-178 -123z" />
<glyph unicode="z" horiz-adv-x="729" d="M-18 -33l618 793l-227 -8l-80 -54l-64 -137l-57 10l78 267h282l359 16l-617 -782l252 18l113 68l86 155l72 -8l-144 -313h-411z" />
<glyph unicode="{" horiz-adv-x="815" d="M250 524l12 113l109 -14l131 114l92 434l168 191l221 29l-22 -84l-138 -33l-90 -121l-94 -424l-113 -117l-96 -37l94 -32l41 -191l-78 -368l23 -109l119 -35l-19 -84l-153 27l-121 158l82 448l-51 127z" />
<glyph unicode="|" horiz-adv-x="815" d="M266 -442l383 1872l101 -11l-379 -1865z" />
<glyph unicode="}" horiz-adv-x="815" d="M92 -231l14 77l123 13l90 133l95 416l129 145l80 16l-70 17l-66 139l86 405l-36 150l-121 20l20 86l166 -24l117 -162l-96 -440l71 -125l121 -17l-22 -79l-144 -29l-100 -133l-109 -467l-172 -135z" />
<glyph unicode="~" horiz-adv-x="802" d="M166 520l217 154l88 14l191 -98l116 22l121 107l23 -78l-228 -205l-108 -16l-217 112l-187 -116z" />
<glyph unicode="&#xa1;" horiz-adv-x="561" d="M174 88l100 297h-2l166 553l97 -2l-109 -565v2l-27 -299l-137 -142zM416 1180l172 166l94 -185l-168 -121z" />
<glyph unicode="&#xa2;" horiz-adv-x="698" d="M174 553l47 311l221 273l156 53l43 207l102 -8l-32 -162l145 -27l64 -113l-129 -108l-105 113l-129 -629l92 8l117 76l43 -37l-107 -119l-170 -63l-43 -215l-106 6l43 209l-125 24zM375 780l33 -221l53 -47l123 600h-23l-121 -121z" />
<glyph unicode="&#xa3;" horiz-adv-x="1009" d="M-41 53l147 142l111 -25l84 152l82 213l-147 14l18 65l174 25l195 393l219 252l264 39l108 -139l5 -92l-129 -109l-91 135l52 51l-25 66l-90 -18l-172 -222l-150 -340l189 -47l-27 -76l-221 11l-92 -211l-148 -170l373 -123l146 31l47 84l-62 67l123 129l66 -151 l-127 -201l-185 -98l-139 -11l-346 148l-166 -90z" />
<glyph unicode="&#xa4;" horiz-adv-x="978" d="M94 330l205 159l-20 25l53 250l33 31l-121 159l174 127l108 -166l230 39l67 -67l215 164l97 -105l-240 -166l-14 -211l-60 -82l142 -221l-144 -80l-127 176l-260 -26l-35 43l-217 -197zM432 573l88 -104l142 41l100 178l-72 109l-121 -9l-100 -77z" />
<glyph unicode="&#xa5;" horiz-adv-x="1062" d="M203 270l45 113l282 -14l37 174l-2 4l-299 -19l39 134l240 -13l-115 533l-92 47l24 71l173 -22l215 33l-9 -78l-65 -19l-33 -51l88 -479l297 455l-12 90l-74 6l14 70l177 -17l198 21l-14 -78l-53 -6l-140 -107l-327 -475l235 6l-26 -119l-258 17l-41 -180l258 16 l-15 -117l-264 10l-12 -53l22 -127l105 -43l-19 -71l-247 16l-232 -25l35 95l72 16l82 98l20 88h-309z" />
<glyph unicode="&#xa6;" horiz-adv-x="815" d="M254 -297l113 352l47 330l166 -14l-121 -344l-41 -355zM446 602l134 338l30 344l150 16l-103 -376l-49 -336z" />
<glyph unicode="&#xa7;" horiz-adv-x="653" d="M78 -55l22 248l60 -23l35 -152l79 -71l117 28l51 146l-51 106l-203 158l-10 184l98 156l134 51l-91 74l-10 190l101 146l151 65l82 -2l137 -65l-26 -221l-64 10l-18 133l-70 61l-82 -20l-47 -92l16 -103l234 -223l8 -149l-94 -174l-129 -62l80 -80l10 -153l-92 -170 l-172 -76l-174 16zM338 588l20 -103l72 -67l92 22l31 88l-12 109l-74 63l-78 -16z" />
<glyph unicode="&#xa8;" horiz-adv-x="641" d="M268 1110l148 154l100 -129l-131 -150zM606 1118l148 146l96 -138l-135 -131z" />
<glyph unicode="&#xaa;" horiz-adv-x="555" d="M221 856l66 129l270 119l-16 72l-84 22l-17 -12l4 -45l-86 -82l-77 78l96 112l219 86l109 -125l-80 -411l24 -43h43v-74l-69 -18l-101 4l-53 41l6 16l-86 -59l-129 26zM342 838l49 -72l45 2l68 53l33 199l-160 -86z" />
<glyph unicode="&#xab;" horiz-adv-x="757" d="M123 440l422 359l47 -39l-170 -232l-125 -94l82 -98l86 -211l-84 -70l-119 226l4 -5zM408 428l415 369l60 -35l-160 -225l-141 -109l88 -96l73 -215l-55 -60z" />
<glyph unicode="&#xac;" horiz-adv-x="1064" d="M176 461l49 203l867 -29l-111 -617l-170 13l104 430h-739z" />
<glyph unicode="&#xad;" horiz-adv-x="561" d="M166 387l41 174l196 -45l205 33l-53 -201l-149 39h-240z" />
<glyph unicode="&#xaf;" horiz-adv-x="606" d="M268 1016l23 162l268 -21l256 35l-14 -170l-260 10z" />
<glyph unicode="&#xb0;" horiz-adv-x="548" d="M250 942l47 215l133 129l199 35l114 -127l-18 -211l-115 -176l-239 -25zM365 979l65 -92l123 39l88 168l-55 100l-97 -4l-92 -78z" />
<glyph unicode="&#xb1;" horiz-adv-x="757" d="M27 -98l49 196l285 -31h401l-59 -174l-383 17zM164 453l47 196l258 -26l74 344l133 10l-96 -344l254 -15l-50 -141l-235 -10l-41 -334l-158 19l78 307z" />
<glyph unicode="&#xb2;" horiz-adv-x="602" d="M133 475v74l381 321l82 189l-21 96l-120 19l-119 -103l-70 43l185 168l161 35l136 -119l-56 -237l-178 -203l-174 -140h199l55 29l80 96l55 -30l-137 -236l-191 19z" />
<glyph unicode="&#xb3;" horiz-adv-x="602" d="M180 635l121 102l55 -78l-18 -55l33 -35l84 4l90 99l12 121l-104 61l-138 -39l-24 53l262 140l55 108l-24 70l-109 6l-135 -111l-45 56l174 145l162 29l106 -56l11 -131l-72 -106l-109 -66l58 -22l71 -103l-10 -147l-90 -119l-152 -67h-176z" />
<glyph unicode="&#xb4;" horiz-adv-x="421" d="M285 1022l258 364l125 -129l-332 -286z" />
<glyph unicode="&#xb6;" horiz-adv-x="815" d="M254 807l10 274l246 246l328 21l233 47l-39 -131l-102 -31l-242 -1241l-139 -8l278 1245h-125l9 -35l-234 -1108l-168 -145l-35 79l82 68l127 606l-43 -6z" />
<glyph unicode="&#xb7;" horiz-adv-x="466" d="M236 657l172 125l92 -147l-168 -154z" />
<glyph unicode="&#xb8;" horiz-adv-x="538" d="M4 -416l111 117l84 -94l55 31l-90 178l49 73l172 166l59 -26l-96 -84l-26 -37l65 -166l-20 -104l-156 -119l-123 -33z" />
<glyph unicode="&#xb9;" horiz-adv-x="604" d="M203 489l2 78h108l66 74l100 567l-119 45l29 74l143 -39l134 31l-158 -682l20 -59l113 -25l-37 -78z" />
<glyph unicode="&#xba;" horiz-adv-x="681" d="M223 834l27 241l213 201l223 35l186 -125l-26 -295l-184 -199l-240 -18zM360 858l91 -108l159 26l95 166l30 197l-26 59l-45 25l-148 -9l-129 -141z" />
<glyph unicode="&#xbb;" horiz-adv-x="757" d="M53 104l178 246l125 90l-92 123l-61 191l65 47l277 -375l-426 -369zM350 150l162 194l139 92l-78 103l-96 200l68 54l293 -375l-449 -355z" />
<glyph unicode="&#xbc;" horiz-adv-x="1378" d="M258 543l8 73l105 43l100 543l-111 27l27 100l127 -41l139 31l-139 -657l35 -37l80 -17l-41 -76zM281 10l505 647l525 695l59 -121l-516 -633l-489 -682zM856 270l469 504l76 -41l-66 -153l-41 -273l142 4l-39 -110l-144 -6l-24 -95l39 -43l67 -10l-26 -67h-301l-2 81 l79 7l35 61l13 78l-267 -6zM1008 315h176v58l37 168z" />
<glyph unicode="&#xbd;" horiz-adv-x="1378" d="M213 543l27 78l86 2l63 79l92 519l-104 16l-8 82l166 -25l112 11l-135 -635l4 -60l94 8l-16 -79l-199 10zM287 -6l528 690l475 678l82 -109l-500 -612l-505 -743zM827 27l379 350l58 196l-109 62l-147 -119l-33 70l172 145h190l82 -133l-78 -215l-290 -266l-35 -21 l211 -6l110 133l80 19l-162 -265l-419 -30z" />
<glyph unicode="&#xbe;" horiz-adv-x="1378" d="M180 668l90 98l111 -43l-39 -57l49 -50l96 19l54 117l-60 112l-143 -26l-41 49l287 192l2 78l-56 45l-159 -86l-72 12l88 103l152 84l149 -6l39 -125l-65 -142l-91 -59l76 -39l47 -127l-61 -176l-119 -86l-192 -31zM270 -8l525 670l487 694l88 -94l-502 -639l-512 -719z M838 188l28 78l449 500l74 -33l-99 -418h131l-22 -108h-125l-29 -135l76 -27l31 -74h-365l25 76l88 21l37 131l6 4zM1020 324h143l45 200z" />
<glyph unicode="&#xbf;" horiz-adv-x="837" d="M125 94l25 271l71 127l354 274l46 59l-3 78l-67 55l117 105l92 -125l-53 -141l-299 -267l-50 -61l-22 -225l104 -121l178 37l154 133l68 -37l-158 -193l-188 -114h-228zM553 1171l139 154l90 -135l-133 -137z" />
<glyph unicode="&#xc0;" horiz-adv-x="1150" d="M8 -25l17 86l88 13l82 98l643 1208l98 37l47 -778l66 -481l61 -90l84 -13l-43 -75l-217 6l-195 -11l-10 97l68 -9l63 87l-37 362l8 10h-354l4 -14l-170 -332v-110l115 -13v-78l-207 21zM528 627l299 -11l-61 461zM719 1749l170 103l102 -387l-86 -29z" />
<glyph unicode="&#xc1;" horiz-adv-x="1150" d="M8 -25l17 86l88 13l82 98l643 1208l98 37l47 -778l66 -481l61 -90l84 -13l-43 -75l-217 6l-195 -11l-10 97l68 -9l63 87l-37 362l8 10h-354l4 -14l-170 -332v-110l115 -13v-78l-207 21zM528 627l299 -11l-61 461zM875 1479l258 364l125 -129l-332 -286z" />
<glyph unicode="&#xc2;" horiz-adv-x="1150" d="M8 -25l17 86l88 13l82 98l643 1208l98 37l47 -778l66 -481l61 -90l84 -13l-43 -75l-217 6l-195 -11l-10 97l68 -9l63 87l-37 362l8 10h-354l4 -14l-170 -332v-110l115 -13v-78l-207 21zM528 627l299 -11l-61 461zM678 1477l45 41l269 336l131 -369l-68 -49l-129 178 l-160 -196z" />
<glyph unicode="&#xc3;" horiz-adv-x="1150" d="M8 -25l17 86l88 13l82 98l643 1208l98 37l47 -778l66 -481l61 -90l84 -13l-43 -75l-217 6l-195 -11l-10 97l68 -9l63 87l-37 362l8 10h-354l4 -14l-170 -332v-110l115 -13v-78l-207 21zM528 627l299 -11l-61 461zM559 1532l199 127l78 8l160 -71l94 6l98 96l53 -55 l-205 -170l-98 -10l-178 79l-164 -90z" />
<glyph unicode="&#xc4;" horiz-adv-x="1150" d="M8 -25l17 86l88 13l82 98l643 1208l98 37l47 -778l66 -481l61 -90l84 -13l-43 -75l-217 6l-195 -11l-10 97l68 -9l63 87l-37 362l8 10h-354l4 -14l-170 -332v-110l115 -13v-78l-207 21zM528 627l299 -11l-61 461zM622 1567l148 154l100 -129l-131 -150zM960 1575l148 146 l96 -138l-135 -131z" />
<glyph unicode="&#xc5;" horiz-adv-x="1150" d="M8 -25l17 86l88 13l82 98l643 1208l98 37l47 -778l66 -481l61 -90l84 -13l-43 -75l-217 6l-195 -11l-10 97l68 -9l63 87l-37 362l8 10h-354l4 -14l-170 -332v-110l115 -13v-78l-207 21zM528 627l299 -11l-61 461zM741 1567l37 172l105 102l163 29l93 -102l-13 -168 l-94 -144l-194 -20zM840 1598l53 -72l88 31l70 131l-41 74l-70 -2l-74 -62z" />
<glyph unicode="&#xc6;" horiz-adv-x="1630" d="M8 -25l17 86l88 13l954 1192h98l277 37h377l-68 -158l-25 -170l-69 -6l4 182l-107 63l-235 -20l-100 -483l194 10l107 70l57 122l68 -30l-74 -226l-29 -215l-80 -8v113l-88 57h-194l14 -18l-86 -385l63 -117l76 -25l170 29l150 143l69 201l70 -37l-70 -205l-106 -225 h-830l37 101l168 88l86 440l-332 -10l-348 -412v-106l115 -13v-78l-207 21zM762 702l233 21l95 389l-54 -57z" />
<glyph unicode="&#xc7;" horiz-adv-x="1150" d="M174 276v338l127 322l215 254l291 123l340 14l186 -115l-20 -151l-25 -197l-80 15v163l-26 138l-168 63l-264 -63l-222 -224l-120 -317l-27 -287l125 -219l203 -94l172 31l196 182l86 178l68 -24l-174 -377l-197 -64l-176 -12l-37 -45l66 -166l-21 -104l-155 -119 l-123 -33l-84 98l110 117l84 -94l56 31l-91 178l50 73l63 62l-268 110z" />
<glyph unicode="&#xc8;" horiz-adv-x="1062" d="M45 -37l33 82l119 43l79 131l183 895l-35 107h-92l24 82h858l-67 -158l-27 -170l-69 -6l4 182l-107 66l-286 -15l-103 -491l234 10l106 70l53 122l68 -30l-76 -226l-26 -215l-80 -8v113l-84 57h-232l17 -18l-88 -385l65 -117l123 -25l170 29l152 143l67 201l72 -37 l-70 -205l-106 -208h-582zM652 1749l170 103l102 -387l-86 -29z" />
<glyph unicode="&#xc9;" horiz-adv-x="1062" d="M45 -37l33 82l119 43l79 131l183 895l-35 107h-92l24 82h858l-67 -158l-27 -170l-69 -6l4 182l-107 66l-286 -15l-103 -491l234 10l106 70l53 122l68 -30l-76 -226l-26 -215l-80 -8v113l-84 57h-232l17 -18l-88 -385l65 -117l123 -25l170 29l152 143l67 201l72 -37 l-70 -205l-106 -208h-582zM813 1479l258 364l125 -129l-332 -286z" />
<glyph unicode="&#xca;" horiz-adv-x="1062" d="M45 -37l33 82l119 43l79 131l183 895l-35 107h-92l24 82h858l-67 -158l-27 -170l-69 -6l4 182l-107 66l-286 -15l-103 -491l234 10l106 70l53 122l68 -30l-76 -226l-26 -215l-80 -8v113l-84 57h-232l17 -18l-88 -385l65 -117l123 -25l170 29l152 143l67 201l72 -37 l-70 -205l-106 -208h-582zM583 1477l45 41l269 336l131 -369l-68 -49l-129 178l-160 -196z" />
<glyph unicode="&#xcb;" horiz-adv-x="1062" d="M45 -37l33 82l119 43l79 131l183 895l-35 107h-92l24 82h858l-67 -158l-27 -170l-69 -6l4 182l-107 66l-286 -15l-103 -491l234 10l106 70l53 122l68 -30l-76 -226l-26 -215l-80 -8v113l-84 57h-232l17 -18l-88 -385l65 -117l123 -25l170 29l152 143l67 201l72 -37 l-70 -205l-106 -208h-582zM530 1567l148 154l100 -129l-131 -150zM868 1575l148 146l96 -138l-135 -131z" />
<glyph unicode="&#xcc;" horiz-adv-x="636" d="M57 -27l21 84l145 49l37 78l203 963l-82 70l-72 12l41 96l240 -59l264 47l8 -80l-125 -35l-86 -121l-207 -909l33 -92l109 -35l-17 -80l-264 47zM457 1749l170 103l102 -387l-86 -29z" />
<glyph unicode="&#xcd;" horiz-adv-x="636" d="M57 -27l21 84l145 49l37 78l203 963l-82 70l-72 12l41 96l240 -59l264 47l8 -80l-125 -35l-86 -121l-207 -909l33 -92l109 -35l-17 -80l-264 47zM588 1479l258 364l125 -129l-332 -286z" />
<glyph unicode="&#xce;" horiz-adv-x="636" d="M57 -27l21 84l145 49l37 78l203 963l-82 70l-72 12l41 96l240 -59l264 47l8 -80l-125 -35l-86 -121l-207 -909l33 -92l109 -35l-17 -80l-264 47zM440 1477l45 41l269 336l131 -369l-68 -49l-129 178l-160 -196z" />
<glyph unicode="&#xcf;" horiz-adv-x="636" d="M57 -27l21 84l145 49l37 78l203 963l-82 70l-72 12l41 96l240 -59l264 47l8 -80l-125 -35l-86 -121l-207 -909l33 -92l109 -35l-17 -80l-264 47zM356 1567l148 154l100 -129l-131 -150zM694 1575l148 146l96 -138l-135 -131z" />
<glyph unicode="&#xd0;" horiz-adv-x="1325" d="M88 -37l4 80l117 39l92 125l78 385h-143l67 149l107 -12l73 363l-28 122h-90l12 86l198 -8l168 29h189l258 -92l207 -225l24 -306l-114 -344l-256 -239l-269 -123l-245 -21l-195 15zM485 160l107 -107l219 33l184 137l127 215l72 303l-35 263l-168 153l-200 70l-107 -4 l6 -4l-112 -510l43 -4l331 24l-84 -172l-245 35h-70l-68 -307v-125z" />
<glyph unicode="&#xd1;" horiz-adv-x="1325" d="M-18 -49l16 76l143 49l115 160l176 831l-59 139l-125 17l2 73l156 7l149 20l532 -952l17 -41l145 753l-30 129l-136 27l25 84l233 -25l215 19v-80l-114 -23l-84 -124l-221 -1002l-15 -172l-37 -4l-575 1012l-8 39l-154 -756l55 -115l91 -35l-17 -80l-229 9zM583 1532 l199 127l78 8l160 -71l94 6l98 96l53 -55l-205 -170l-98 -10l-178 79l-164 -90z" />
<glyph unicode="&#xd2;" horiz-adv-x="1327" d="M186 262v387l43 131l183 340l331 189l342 12l263 -164l82 -334l-76 -370l-197 -297l-293 -176l-270 -23l-250 96zM401 354l111 -243l215 -52l252 125l151 256l82 336l-36 281l-82 143l-156 43l-172 -45l-199 -166l-153 -373zM811 1749l170 103l102 -387l-86 -29z" />
<glyph unicode="&#xd3;" horiz-adv-x="1327" d="M186 262v387l43 131l183 340l331 189l342 12l263 -164l82 -334l-76 -370l-197 -297l-293 -176l-270 -23l-250 96zM401 354l111 -243l215 -52l252 125l151 256l82 336l-36 281l-82 143l-156 43l-172 -45l-199 -166l-153 -373zM951 1479l258 364l125 -129l-332 -286z" />
<glyph unicode="&#xd4;" horiz-adv-x="1327" d="M186 262v387l43 131l183 340l331 189l342 12l263 -164l82 -334l-76 -370l-197 -297l-293 -176l-270 -23l-250 96zM401 354l111 -243l215 -52l252 125l151 256l82 336l-36 281l-82 143l-156 43l-172 -45l-199 -166l-153 -373zM794 1477l45 41l269 336l131 -369l-68 -49 l-129 178l-160 -196z" />
<glyph unicode="&#xd5;" horiz-adv-x="1327" d="M186 262v387l43 131l183 340l331 189l342 12l263 -164l82 -334l-76 -370l-197 -297l-293 -176l-270 -23l-250 96zM401 354l111 -243l215 -52l252 125l151 256l82 336l-36 281l-82 143l-156 43l-172 -45l-199 -166l-153 -373zM661 1532l199 127l78 8l160 -71l94 6l98 96 l53 -55l-205 -170l-98 -10l-178 79l-164 -90z" />
<glyph unicode="&#xd6;" horiz-adv-x="1327" d="M186 262v387l43 131l183 340l331 189l342 12l263 -164l82 -334l-76 -370l-197 -297l-293 -176l-270 -23l-250 96zM401 354l111 -243l215 -52l252 125l151 256l82 336l-36 281l-82 143l-156 43l-172 -45l-199 -166l-153 -373zM719 1567l148 154l100 -129l-131 -150z M1057 1575l148 146l96 -138l-135 -131z" />
<glyph unicode="&#xd7;" horiz-adv-x="837" d="M176 338l248 197l-178 200l155 127l152 -225l266 227l92 -92l-278 -207l155 -221l-122 -78l-160 183l-240 -244z" />
<glyph unicode="&#xd8;" horiz-adv-x="1327" d="M90 133l123 92l-37 133l10 291l43 131l183 340l331 189l342 12l207 -129l103 98l86 -112l-117 -88l66 -267l-76 -370l-197 -297l-293 -176l-270 -23l-250 96l-55 72l-123 -105zM401 352l383 322l373 409l-63 117l-156 43l-172 -45l-199 -166l-153 -373zM455 233l57 -122 l215 -52l252 125l151 256l82 336l-24 185l-361 -347z" />
<glyph unicode="&#xd9;" horiz-adv-x="1325" d="M266 262l172 834l-32 110l-87 19l3 73l256 -10l253 23l-26 -88l-92 -13l-92 -125l-166 -782l90 -178l215 -31l205 60l133 184l153 741l-30 121l-97 43l31 60l205 -9l192 11l-18 -76l-74 -23l-78 -114l-118 -553l-117 -316l-211 -221l-279 -53l-270 65zM846 1749l170 103 l102 -387l-86 -29z" />
<glyph unicode="&#xda;" horiz-adv-x="1325" d="M266 262l172 834l-32 110l-87 19l3 73l256 -10l253 23l-26 -88l-92 -13l-92 -125l-166 -782l90 -178l215 -31l205 60l133 184l153 741l-30 121l-97 43l31 60l205 -9l192 11l-18 -76l-74 -23l-78 -114l-118 -553l-117 -316l-211 -221l-279 -53l-270 65zM998 1479l258 364 l125 -129l-332 -286z" />
<glyph unicode="&#xdb;" horiz-adv-x="1325" d="M266 262l172 834l-32 110l-87 19l3 73l256 -10l253 23l-26 -88l-92 -13l-92 -125l-166 -782l90 -178l215 -31l205 60l133 184l153 741l-30 121l-97 43l31 60l205 -9l192 11l-18 -76l-74 -23l-78 -114l-118 -553l-117 -316l-211 -221l-279 -53l-270 65zM833 1477l45 41 l269 336l131 -369l-68 -49l-129 178l-160 -196z" />
<glyph unicode="&#xdc;" horiz-adv-x="1325" d="M266 262l172 834l-32 110l-87 19l3 73l256 -10l253 23l-26 -88l-92 -13l-92 -125l-166 -782l90 -178l215 -31l205 60l133 184l153 741l-30 121l-97 43l31 60l205 -9l192 11l-18 -76l-74 -23l-78 -114l-118 -553l-117 -316l-211 -221l-279 -53l-270 65zM739 1567l148 154 l100 -129l-131 -150zM1077 1575l148 146l96 -138l-135 -131z" />
<glyph unicode="&#xdd;" horiz-adv-x="1062" d="M285 -27l37 95l69 16l84 98l76 361l-139 639l-93 47l25 71l172 -22l215 33l-6 -78l-66 -19l-34 -51l90 -479l297 455l-15 90l-73 6l16 70l176 -17l197 21l-13 -78l-55 -6l-137 -107l-371 -534l-80 -361l23 -127l102 -43l-16 -71l-250 16zM838 1479l258 364l125 -129 l-332 -286z" />
<glyph unicode="&#xde;" horiz-adv-x="978" d="M49 -31l39 88l102 31l66 109l190 874l-20 123l-94 37l26 69l230 -18l260 27l-10 -80l-146 -45l-74 -146l56 9l227 -29l172 -184l-26 -252l-140 -207l-254 -101l-204 -20l-23 -94l43 -51l133 -39l-45 -95l-219 27zM469 338l59 -4l144 45l129 102l65 213l-32 162l-162 90 l-68 -4z" />
<glyph unicode="&#xdf;" horiz-adv-x="890" d="M33 -31l18 84l72 4l55 82l160 772l78 199l280 238l191 24l125 -160l-31 -178l-223 -203l-29 -100l197 -354l-43 -201l-166 -176l-142 -35l-49 15l-65 79l102 121l70 -100l55 14l62 105l10 120l-203 287l29 131l67 105l150 168l35 141l-37 92l-72 35l-162 -156l-90 -272 l-151 -760l45 -39l80 2l-7 -88l-217 27z" />
<glyph unicode="&#xe0;" horiz-adv-x="821" d="M129 160l39 348l197 264l186 129l127 -6l143 -57l127 -11l-28 -67l-78 -37l-125 -588l18 -49l60 27l6 -95l-105 -20l-192 -57l47 131l10 45l-41 -45l-166 -113l-90 37zM315 428l19 -233l67 -76l107 37l78 77h-2l96 441l8 82l-129 47l-129 -90zM445 1292l170 103l102 -387 l-86 -29z" />
<glyph unicode="&#xe1;" horiz-adv-x="821" d="M129 160l39 348l197 264l186 129l127 -6l143 -57l127 -11l-28 -67l-78 -37l-125 -588l18 -49l60 27l6 -95l-105 -20l-192 -57l47 131l10 45l-41 -45l-166 -113l-90 37zM315 428l19 -233l67 -76l107 37l78 77h-2l96 441l8 82l-129 47l-129 -90zM588 1022l258 364l125 -129 l-332 -286z" />
<glyph unicode="&#xe2;" horiz-adv-x="821" d="M129 160l39 348l197 264l186 129l127 -6l143 -57l127 -11l-28 -67l-78 -37l-125 -588l18 -49l60 27l6 -95l-105 -20l-192 -57l47 131l10 45l-41 -45l-166 -113l-90 37zM315 428l19 -233l67 -76l107 37l78 77h-2l96 441l8 82l-129 47l-129 -90zM448 1020l45 41l269 336 l131 -369l-68 -49l-129 178l-160 -196z" />
<glyph unicode="&#xe3;" horiz-adv-x="821" d="M129 160l39 348l197 264l186 129l127 -6l143 -57l127 -11l-28 -67l-78 -37l-125 -588l18 -49l60 27l6 -95l-105 -20l-192 -57l47 131l10 45l-41 -45l-166 -113l-90 37zM315 428l19 -233l67 -76l107 37l78 77h-2l96 441l8 82l-129 47l-129 -90zM323 1075l199 127l78 8 l160 -71l94 6l98 96l53 -55l-205 -170l-98 -10l-178 79l-164 -90z" />
<glyph unicode="&#xe4;" horiz-adv-x="821" d="M129 160l39 348l197 264l186 129l127 -6l143 -57l127 -11l-28 -67l-78 -37l-125 -588l18 -49l60 27l6 -95l-105 -20l-192 -57l47 131l10 45l-41 -45l-166 -113l-90 37zM315 428l19 -233l67 -76l107 37l78 77h-2l96 441l8 82l-129 47l-129 -90zM356 1110l148 154l100 -129 l-131 -150zM694 1118l148 146l96 -138l-135 -131z" />
<glyph unicode="&#xe5;" horiz-adv-x="821" d="M129 160l39 348l197 264l186 129l127 -6l143 -57l127 -11l-28 -67l-78 -37l-125 -588l18 -49l60 27l6 -95l-105 -20l-192 -57l47 131l10 45l-41 -45l-166 -113l-90 37zM315 428l19 -233l67 -76l107 37l78 77h-2l96 441l8 82l-129 47l-129 -90zM489 1110l37 172l105 102 l163 29l93 -102l-13 -168l-94 -144l-194 -20zM588 1141l53 -72l88 31l70 131l-41 74l-70 -2l-74 -62z" />
<glyph unicode="&#xe6;" horiz-adv-x="1165" d="M72 160l39 348l192 264l186 129l129 -6l144 -57l84 -9l84 37l172 -12l115 -115v-262l-498 -53l-14 -68v2l-13 -168l131 -98l191 43l114 131l37 -84l-211 -188l-243 -45l-93 80l-28 -80l-180 22l82 105l12 41l-41 -45l-168 -113l-94 37zM256 428l16 -233l68 -76l106 37 l80 77h-6l98 441v-2l9 84l-127 47l-129 -90zM743 512l297 47l9 164l-93 68l-84 -31l-65 -72z" />
<glyph unicode="&#xe7;" horiz-adv-x="698" d="M61 -416l111 117l86 -94l53 31l-88 178l47 73l97 93l-138 28l-129 201l47 307l222 277l264 88l147 -25l68 -113l-129 -108l-113 131h-119l-120 -119l-66 -211l33 -219l115 -102l129 8l116 76l41 -37l-106 -115l-183 -67l-67 -74l65 -166l-20 -104l-156 -119l-121 -33z " />
<glyph unicode="&#xe8;" horiz-adv-x="727" d="M96 315l113 314l178 194l125 58l172 -15l113 -112v-267l-492 -53l-18 -45l32 -162l130 -108l147 33l117 129l41 -80l-215 -191l-166 -45l-197 80zM326 522l309 51l10 160l-92 68l-102 -33l-72 -68zM412 1292l170 103l102 -387l-86 -29z" />
<glyph unicode="&#xe9;" horiz-adv-x="727" d="M96 315l113 314l178 194l125 58l172 -15l113 -112v-267l-492 -53l-18 -45l32 -162l130 -108l147 33l117 129l41 -80l-215 -191l-166 -45l-197 80zM326 522l309 51l10 160l-92 68l-102 -33l-72 -68zM549 1022l258 364l125 -129l-332 -286z" />
<glyph unicode="&#xea;" horiz-adv-x="727" d="M96 315l113 314l178 194l125 58l172 -15l113 -112v-267l-492 -53l-18 -45l32 -162l130 -108l147 33l117 129l41 -80l-215 -191l-166 -45l-197 80zM326 522l309 51l10 160l-92 68l-102 -33l-72 -68zM397 1020l45 41l269 336l131 -369l-68 -49l-129 178l-160 -196z" />
<glyph unicode="&#xeb;" horiz-adv-x="727" d="M96 315l113 314l178 194l125 58l172 -15l113 -112v-267l-492 -53l-18 -45l32 -162l130 -108l147 33l117 129l41 -80l-215 -191l-166 -45l-197 80zM319 1110l148 154l100 -129l-131 -150zM326 522l309 51l10 160l-92 68l-102 -33l-72 -68zM657 1118l148 146l96 -138 l-135 -131z" />
<glyph unicode="&#xec;" horiz-adv-x="442" d="M29 -18l32 81l74 11l58 84l90 495l-33 60l-43 -15l-8 80l143 49l133 72l41 -39l-180 -729l35 -70l47 -36l-19 -60l-166 25zM277 1292l170 103l102 -387l-86 -29z" />
<glyph unicode="&#xed;" horiz-adv-x="442" d="M29 -18l32 81l74 11l58 84l90 495l-33 60l-43 -15l-8 80l143 49l133 72l41 -39l-180 -729l35 -70l47 -36l-19 -60l-166 25zM412 1022l258 364l125 -129l-332 -286z" />
<glyph unicode="&#xee;" horiz-adv-x="442" d="M29 -18l32 81l74 11l58 84l90 495l-33 60l-43 -15l-8 80l143 49l133 72l41 -39l-180 -729l35 -70l47 -36l-19 -60l-166 25zM260 1020l45 41l269 336l131 -369l-68 -49l-129 178l-160 -196z" />
<glyph unicode="&#xef;" horiz-adv-x="528" d="M64 -18l32 81l74 11l58 84l90 495l-33 60l-43 -15l-8 80l143 49l133 72l41 -39l-180 -729l35 -70l47 -36l-19 -60l-166 25zM215 1110l148 154l100 -129l-131 -150zM553 1118l148 146l96 -138l-135 -131z" />
<glyph unicode="&#xf0;" horiz-adv-x="856" d="M92 293l94 303l238 242l227 67l99 -61l-82 225l-195 -147l-72 84l217 129l-88 84l-81 2l-3 65l117 51h-2l107 60l94 -164l168 153l65 -96l-200 -131l49 -96l92 -342l-33 -332l-225 -334l-260 -100l-236 70zM301 410l33 -238l98 -109l131 15l84 108l82 230l12 309l-88 76 l-143 -19l-53 -24l-60 -74z" />
<glyph unicode="&#xf1;" horiz-adv-x="878" d="M51 47l64 25l57 84l107 497l-31 58l-27 -13l-14 70l139 47l117 84l37 -39l-33 -100l86 61l221 68l141 -101v-192l-112 -481l33 -62l28 -12l-14 -66l-152 17l-174 -23l8 84l66 15l55 69l97 463l-43 135l-113 10l-156 -73l-116 -547l26 -62l72 -12l-21 -67h-344zM340 1075 l199 127l78 8l160 -71l94 6l98 96l53 -55l-205 -170l-98 -10l-178 79l-164 -90z" />
<glyph unicode="&#xf2;" d="M106 184l21 265l162 301l239 116h209l82 -26l123 -117l21 -240l-97 -266l-172 -186l-235 -60l-223 43zM279 315l43 -196l110 -70l139 21l121 161l101 273l-19 203l-92 77l-145 -6l-158 -151zM506 1292l170 103l102 -387l-86 -29z" />
<glyph unicode="&#xf3;" d="M106 184l21 265l162 301l239 116h209l82 -26l123 -117l21 -240l-97 -266l-172 -186l-235 -60l-223 43zM279 315l43 -196l110 -70l139 21l121 161l101 273l-19 203l-92 77l-145 -6l-158 -151zM647 1022l258 364l125 -129l-332 -286z" />
<glyph unicode="&#xf4;" d="M106 184l21 265l162 301l239 116h209l82 -26l123 -117l21 -240l-97 -266l-172 -186l-235 -60l-223 43zM279 315l43 -196l110 -70l139 21l121 161l101 273l-19 203l-92 77l-145 -6l-158 -151zM495 1020l45 41l269 336l131 -369l-68 -49l-129 178l-160 -196z" />
<glyph unicode="&#xf5;" d="M106 184l21 265l162 301l239 116h209l82 -26l123 -117l21 -240l-97 -266l-172 -186l-235 -60l-223 43zM279 315l43 -196l110 -70l139 21l121 161l101 273l-19 203l-92 77l-145 -6l-158 -151zM358 1075l199 127l78 8l160 -71l94 6l98 96l53 -55l-205 -170l-98 -10l-178 79 l-164 -90z" />
<glyph unicode="&#xf6;" d="M106 184l21 265l162 301l239 116h209l82 -26l123 -117l21 -240l-97 -266l-172 -186l-235 -60l-223 43zM279 315l43 -196l110 -70l139 21l121 161l101 273l-19 203l-92 77l-145 -6l-158 -151zM422 1110l148 154l100 -129l-131 -150zM760 1118l148 146l96 -138l-135 -131z " />
<glyph unicode="&#xf7;" horiz-adv-x="837" d="M172 453l49 196l285 -31h401l-59 -174l-383 17zM338 195l154 172l92 -154l-148 -151zM473 867l154 172l92 -154l-148 -151z" />
<glyph unicode="&#xf8;" d="M106 184l21 265l162 301l239 116h209l82 -26l123 -117l21 -240l-97 -266l-172 -186l-235 -60l-223 43zM279 315l16 -67l260 227l209 250l-80 59l-147 -6l-158 -151zM313 145l9 -26l110 -70l139 21l119 159l103 275l-11 88l-194 -174z" />
<glyph unicode="&#xf9;" horiz-adv-x="886" d="M168 78l49 344l57 278l-30 62l-41 18l-2 82l135 -16l145 31l-135 -637l53 -134h119l133 82l-4 35l92 486l-22 53l-68 14l2 82l140 -14l178 30l-105 -421l-71 -328l20 -29l74 19l-27 -92l-123 -5l-149 -65l24 137l-123 -76l-174 -39zM445 1292l170 103l102 -387l-86 -29z " />
<glyph unicode="&#xfa;" horiz-adv-x="886" d="M168 78l49 344l57 278l-30 62l-41 18l-2 82l135 -16l145 31l-135 -637l53 -134h119l133 82l-4 35l92 486l-22 53l-68 14l2 82l140 -14l178 30l-105 -421l-71 -328l20 -29l74 19l-27 -92l-123 -5l-149 -65l24 137l-123 -76l-174 -39zM600 1022l258 364l125 -129l-332 -286 z" />
<glyph unicode="&#xfb;" horiz-adv-x="886" d="M168 78l49 344l57 278l-30 62l-41 18l-2 82l135 -16l145 31l-135 -637l53 -134h119l133 82l-4 35l92 486l-22 53l-68 14l2 82l140 -14l178 30l-105 -421l-71 -328l20 -29l74 19l-27 -92l-123 -5l-149 -65l24 137l-123 -76l-174 -39zM411 1020l45 41l269 336l131 -369 l-68 -49l-129 178l-160 -196z" />
<glyph unicode="&#xfc;" horiz-adv-x="886" d="M168 78l49 344l57 278l-30 62l-41 18l-2 82l135 -16l145 31l-135 -637l53 -134h119l133 82l-4 35l92 486l-22 53l-68 14l2 82l140 -14l178 30l-105 -421l-71 -328l20 -29l74 19l-27 -92l-123 -5l-149 -65l24 137l-123 -76l-174 -39zM354 1110l148 154l100 -129l-131 -150 zM692 1118l148 146l96 -138l-135 -131z" />
<glyph unicode="&#xfd;" horiz-adv-x="786" d="M12 -346l119 115l53 -70l35 20l133 238l-90 745l-24 70l-50 25l17 67l145 -14l176 24l-8 -79l-59 -9l-29 -57l51 -528l256 501l-8 78l-61 8l41 84l125 -22l149 22l-10 -77l-84 -31l-60 -80l-563 -1032l-178 -123zM611 1022l258 364l125 -129l-332 -286z" />
<glyph unicode="&#xfe;" horiz-adv-x="892" d="M-84 -549l8 90l94 4l60 97l280 1505l-39 86l9 74l116 16l113 76l41 -58l-160 -573l217 111l242 -54l74 -254l-90 -315l-179 -190l-190 -84l-164 -21l-55 37l6 -29l-94 -364l26 -58l140 -20l-21 -88l-213 39zM358 289l25 -197l102 -37l144 82l114 191l31 247l-80 152 l-147 18l-109 -59z" />
<glyph unicode="&#xff;" horiz-adv-x="786" d="M12 -346l119 115l53 -70l35 20l133 238l-90 745l-24 70l-50 25l17 67l145 -14l176 24l-8 -79l-59 -9l-29 -57l51 -528l256 501l-8 78l-61 8l41 84l125 -22l149 22l-10 -77l-84 -31l-60 -80l-563 -1032l-178 -123zM358 1110l148 154l100 -129l-131 -150zM696 1118l148 146 l96 -138l-135 -131z" />
<glyph unicode="&#x152;" horiz-adv-x="1591" d="M172 479l129 463l254 268l338 99l588 -17l284 25l-51 -139l2 2l-37 -172l-86 -17l19 117l-111 98h-258l-113 -487h170l113 47l70 131l82 21l-95 -265l3 2l-25 -231l-70 16l6 88l-73 80h-199l6 -2l-92 -444l90 -103l180 7l179 120l77 197l90 -12l-159 -385h-574l-334 -6 l-299 157zM395 537l19 -273l180 -190l151 -15l91 74l116 514l119 574l-135 8l-195 -55l-258 -273z" />
<glyph unicode="&#x153;" horiz-adv-x="1351" d="M96 184l29 265l154 311l223 119h192l76 -33l111 -119v-14l100 110l129 58l168 -15l117 -112v-267l-498 -47l4 -8l-20 -43l32 -162l136 -108l143 33l115 127l39 -82l-209 -187l-166 -45l-201 80l-27 98l-100 -118l-223 -64l-203 45zM264 311l33 -198l104 -70l119 20 l117 166l96 279l-8 205l-84 82l-129 -7l-150 -153zM936 530l283 43l8 160l-90 68l-86 -29l-64 -70z" />
<glyph unicode="&#x178;" horiz-adv-x="1062" d="M285 -27l37 95l69 16l84 98l76 361l-139 639l-93 47l25 71l172 -22l215 33l-6 -78l-66 -19l-34 -51l90 -479l297 455l-15 90l-73 6l16 70l176 -17l197 21l-13 -78l-55 -6l-137 -107l-371 -534l-80 -361l23 -127l102 -43l-16 -71l-250 16zM585 1567l148 154l100 -129 l-131 -150zM923 1575l148 146l96 -138l-135 -131z" />
<glyph unicode="&#x2c6;" horiz-adv-x="503" d="M268 1020l45 41l269 336l131 -369l-68 -49l-129 178l-160 -196z" />
<glyph unicode="&#x2dc;" horiz-adv-x="741" d="M268 1075l199 127l78 8l160 -71l94 6l98 96l53 -55l-205 -170l-98 -10l-178 79l-164 -90z" />
<glyph unicode="&#x2000;" horiz-adv-x="935" />
<glyph unicode="&#x2001;" horiz-adv-x="1870" />
<glyph unicode="&#x2002;" horiz-adv-x="935" />
<glyph unicode="&#x2003;" horiz-adv-x="1870" />
<glyph unicode="&#x2004;" horiz-adv-x="623" />
<glyph unicode="&#x2005;" horiz-adv-x="467" />
<glyph unicode="&#x2006;" horiz-adv-x="311" />
<glyph unicode="&#x2007;" horiz-adv-x="311" />
<glyph unicode="&#x2008;" horiz-adv-x="233" />
<glyph unicode="&#x2009;" horiz-adv-x="374" />
<glyph unicode="&#x200a;" horiz-adv-x="103" />
<glyph unicode="&#x2010;" horiz-adv-x="561" d="M166 387l41 174l196 -45l205 33l-53 -201l-149 39h-240z" />
<glyph unicode="&#x2011;" horiz-adv-x="561" d="M166 387l41 174l196 -45l205 33l-53 -201l-149 39h-240z" />
<glyph unicode="&#x2012;" horiz-adv-x="561" d="M166 387l41 174l196 -45l205 33l-53 -201l-149 39h-240z" />
<glyph unicode="&#x2013;" horiz-adv-x="815" d="M76 369l30 159l402 -30l385 18l-14 -143l-367 8z" />
<glyph unicode="&#x2014;" horiz-adv-x="1591" d="M72 354l49 168h1552l-16 -149l-690 20z" />
<glyph unicode="&#x2018;" horiz-adv-x="382" d="M246 1028l133 242l156 73l124 -8l-24 -63l-123 -17l-117 -116l-8 -125l35 -39l53 29l64 -132l-105 -114l-137 57z" />
<glyph unicode="&#x2019;" horiz-adv-x="382" d="M211 825l180 76l66 164l-33 74l-51 -9l-88 109l178 145l110 -131v-247l-133 -172l-217 -74z" />
<glyph unicode="&#x201a;" horiz-adv-x="382" d="M-55 -373l26 94h105l121 111l28 127l-43 61l-51 -22l-96 104l129 129l166 -114v-232l-107 -153l-135 -78z" />
<glyph unicode="&#x201c;" horiz-adv-x="722" d="M248 1053l102 182l150 90l129 16v-75l-125 -25l-94 -63l-29 -160l41 -55l55 34l60 -125l-113 -127l-158 93zM578 971l53 207l172 135l184 26l-39 -71l-123 -27l-90 -94l-10 -105l53 -86l56 52l59 -142l-107 -110l-131 30z" />
<glyph unicode="&#x201d;" horiz-adv-x="722" d="M211 764l8 102l74 -20l162 115l-6 178l-29 8l-49 -19l-70 115l129 123l137 -102l19 -205l-105 -199l-145 -78zM520 774l31 84l72 -8l168 115l-33 188l-58 -20l-84 100l138 149l176 -155l-27 -228l-117 -165l-157 -66z" />
<glyph unicode="&#x201e;" horiz-adv-x="722" d="M-37 -371l14 76l103 21l119 122l18 127l-41 35l-35 -18l-98 100l150 144l153 -156l-6 -174l-109 -178l-155 -90zM303 -348l12 74l101 4l137 145l4 94l-41 49l-55 -8l-88 80l143 146l168 -179l-14 -172l-131 -192l-166 -58z" />
<glyph unicode="&#x2022;" horiz-adv-x="952" d="M358 528l52 273l194 170l182 4l93 -184l-25 -203l-178 -182l-207 -9z" />
<glyph unicode="&#x2026;" horiz-adv-x="1591" d="M168 80l166 162l78 -150l-146 -153zM674 96l184 150l90 -170l-155 -137zM1194 92l176 170l82 -182l-143 -129z" />
<glyph unicode="&#x202f;" horiz-adv-x="374" />
<glyph unicode="&#x2039;" horiz-adv-x="468" d="M98 428l422 356l74 -24l-166 -217l-160 -113l103 -72l86 -243l-68 -62z" />
<glyph unicode="&#x203a;" horiz-adv-x="468" d="M53 125l176 213l121 96l-80 88l-82 215l70 54l279 -379l-428 -346z" />
<glyph unicode="&#x205f;" horiz-adv-x="467" />
<glyph unicode="&#x20ac;" horiz-adv-x="1150" d="M45 352l43 158l107 -10v116l26 70l-100 -8l39 186l127 -12l32 84l216 254l292 123l336 14l178 -110l-120 -154l-23 117l-166 63l-266 -63l-217 -224l-47 -114h547l-123 -154l-404 23l-73 -9l-25 -63l-14 -158l77 -4l285 17l-106 -136l-191 9l-74 -5l121 -229l205 -94 l174 31l193 182l16 31l55 -60l-88 -194l-200 -64l-250 -18l-277 114l-157 215l-3 80z" />
<glyph unicode="&#x2122;" horiz-adv-x="1335" d="M418 1143l74 178l149 -8l201 12l-11 -186l-75 -9l6 89l-37 30l-35 2v-20l-76 -348l4 -27l56 6l-29 -84l-96 23l-107 -6l9 71l43 -10l20 25l70 366h-19l-33 -26l-47 -97zM778 791l10 65h48l28 29l78 327l-2 33l-37 10l-12 72l100 -14l74 10l29 -328l170 330l45 -16h104 l-12 -74l-35 10l-14 -18l-88 -342l8 -27l63 6l-20 -80l-103 21l-104 -17l2 70l45 -2l31 23l43 231l-168 -315h-60l-20 309l-43 -195l-2 -45l47 -2l-2 -69l-94 8z" />
<glyph unicode="&#x25fc;" horiz-adv-x="870" d="M0 0v870h870v-870h-870z" />
</font>
</defs>
</svg>
